<?xml version="1.0" encoding="UTF-8" standalone="no"?>
<!-- Created with Inkscape (http://www.inkscape.org/) -->

<svg
   xmlns:dc="http://purl.org/dc/elements/1.1/"
   xmlns:cc="http://creativecommons.org/ns#"
   xmlns:rdf="http://www.w3.org/1999/02/22-rdf-syntax-ns#"
   xmlns:svg="http://www.w3.org/2000/svg"
   xmlns="http://www.w3.org/2000/svg"
   xmlns:sodipodi="http://sodipodi.sourceforge.net/DTD/sodipodi-0.dtd"
   xmlns:inkscape="http://www.inkscape.org/namespaces/inkscape"
   width="61.376713mm"
   height="41.834389mm"
   viewBox="0 0 217.47654 148.23209"
   id="svg7021"
   version="1.1"
   inkscape:version="0.91 r13725"
   sodipodi:docname="laptop.svg">
  <defs
     id="defs7023" />
  <sodipodi:namedview
     id="base"
     pagecolor="#ffffff"
     bordercolor="#666666"
     borderopacity="1.0"
     inkscape:pageopacity="0.0"
     inkscape:pageshadow="2"
     inkscape:zoom="0.35"
     inkscape:cx="54.279951"
     inkscape:cy="180.44264"
     inkscape:document-units="px"
     inkscape:current-layer="layer1"
     showgrid="false"
     fit-margin-top="0"
     fit-margin-left="0"
     fit-margin-right="0"
     fit-margin-bottom="0"
     inkscape:window-width="1600"
     inkscape:window-height="838"
     inkscape:window-x="0"
     inkscape:window-y="27"
     inkscape:window-maximized="1" />
  <metadata
     id="metadata7026">
    <rdf:RDF>
      <cc:Work
         rdf:about="">
        <dc:format>image/svg+xml</dc:format>
        <dc:type
           rdf:resource="http://purl.org/dc/dcmitype/StillImage" />
        <dc:title></dc:title>
      </cc:Work>
    </rdf:RDF>
  </metadata>
  <g
     inkscape:label="Layer 1"
     inkscape:groupmode="layer"
     id="layer1"
     transform="translate(399.27995,-564.57276)">
    <g
       id="layer1-9"
       inkscape:label="Layer 1"
       transform="matrix(0.30787723,0,0,0.30832007,-406.03742,526.75529)">
      <g
         id="g6796">
        <g
           id="g6782"
           style="fill:#ffffff;stroke:#000000;stroke-width:3.24571443;stroke-miterlimit:4;stroke-dasharray:none">
          <path
             style="fill:#ffffff;fill-opacity:1;fill-rule:evenodd;stroke:#000000;stroke-width:3.24571443;stroke-linecap:round;stroke-linejoin:round;stroke-miterlimit:4;stroke-dasharray:none;stroke-opacity:1"
             d="m 617.49998,526.78572 c 6.19166,2.29293 16.23323,-2.17166 17.85715,-8.57143 L 726.07141,160.7143 c 2.74972,-10.8365 -3.88669,-17.09158 -10.71429,-17.5 L 398.92856,124.28573 c -4.48436,-0.26825 -6.0533,7.07033 -7.14286,11.42857 l -70.35714,281.42857 296.07142,109.64285 z"
             id="path2202"
             sodipodi:nodetypes="czzzzzcz"
             inkscape:connector-curvature="0" />
          <path
             style="fill:#ffffff;fill-opacity:1;fill-rule:evenodd;stroke:#000000;stroke-width:3.24571443;stroke-linecap:round;stroke-linejoin:round;stroke-miterlimit:4;stroke-dasharray:none;stroke-opacity:1"
             d="m 392.94933,130.77651 c 1.05739,-4.26065 1.56211,-6.02346 12.77484,-5.28536 l 310.47397,20.43764 c 4.81065,0.31667 5.68701,3.69299 3.03045,14.14214 l -90.91372,357.59399 c -3.59452,14.13844 -12.94523,7.22579 -19.1929,5.05076 L 324.76404,423.72074 c -5.09046,-1.77217 -1.80339,-10.93103 -0.50508,-16.16244 l 68.69037,-276.78179 z"
             id="path1440"
             sodipodi:nodetypes="czzzzzzzz"
             inkscape:connector-curvature="0" />
          <path
             style="fill:#000000;fill-opacity:1;fill-rule:evenodd;stroke:#000000;stroke-width:3.24571443;stroke-linecap:butt;stroke-linejoin:miter;stroke-miterlimit:4;stroke-dasharray:none;stroke-opacity:1"
             d="m 401.07142,137.50002 303.92856,22.14285 -86.07142,340.71428 -286.07143,-93.57143 68.21429,-269.2857 z"
             id="path2200"
             inkscape:connector-curvature="0" />
        </g>
        <g
           id="g6787"
           style="fill:#ffffff;stroke:#000000;stroke-width:3.24571443;stroke-miterlimit:4;stroke-dasharray:none">
          <path
             style="fill:#ffffff;fill-opacity:1;fill-rule:evenodd;stroke:#000000;stroke-width:3.24571443;stroke-linecap:round;stroke-linejoin:round;stroke-miterlimit:4;stroke-dasharray:none;stroke-opacity:1"
             d="m 23.571428,442.50001 0.714286,17.85714 c 0.162055,4.05137 4.280135,7.37654 7.857142,9.28571 L 270.35714,596.78572 c 11.06364,5.90503 13.24315,6.05418 25.71428,3.57143 l 310.35714,-61.78572 c 5.14258,-1.02378 10,-6.89935 10,-12.14285 l 0,-18.21429 L 310.90862,405.65663 23.571428,442.50001 Z"
             id="path3727"
             sodipodi:nodetypes="czzzzzzccc"
             inkscape:connector-curvature="0" />
          <path
             style="fill:#ffffff;fill-opacity:1;fill-rule:evenodd;stroke:#000000;stroke-width:3.24571443;stroke-linecap:round;stroke-linejoin:round;stroke-miterlimit:4;stroke-dasharray:none;stroke-opacity:1"
             d="m 266.07142,565.71429 c 18.81786,9.52332 27.3655,4.30523 40.71428,1.78571 l 304.64286,-57.49999 c 2.09264,-0.39498 10.59526,-1.27466 -2.85715,-5.71429 l -287.85713,-95 c -8.52278,-2.81273 -15.25059,-2.69912 -22.82125,-1.72443 L 34.163161,441.51524 c -14.679061,1.88986 -8.909972,2.32599 -3.091733,5.27048 L 266.07142,565.71429 Z"
             id="path3725"
             sodipodi:nodetypes="czzzzzzzz"
             inkscape:connector-curvature="0" />
          <path
             style="fill:#ffffff;fill-opacity:1;fill-rule:evenodd;stroke:#000000;stroke-width:3.24571443;stroke-linecap:butt;stroke-linejoin:miter;stroke-miterlimit:4;stroke-dasharray:none;stroke-opacity:1"
             d="m 188.57143,432.85715 130.71428,-16.07143 239.2857,82.5 -146.42856,25 -223.57142,-91.42857 z"
             id="path4487"
             sodipodi:nodetypes="ccccc"
             inkscape:connector-curvature="0" />
          <path
             style="fill:#ffffff;fill-opacity:1;fill-rule:evenodd;stroke:#000000;stroke-width:3.24571443;stroke-linecap:butt;stroke-linejoin:miter;stroke-miterlimit:4;stroke-dasharray:none;stroke-opacity:1"
             d="m 141.78571,476.78572 c -5.62618,0.71561 -3.58017,3.58918 -2.14286,4.28572 l 46.42857,22.49999 c 4.01561,1.94603 8.80234,2.81134 13.21429,2.14286 l 82.5,-12.5 c 2.16076,-0.32739 12.83053,-1.76731 3.21428,-5.71428 l -47.85714,-19.64286 c -4.31767,-1.77218 -9.29866,-2.01746 -13.92857,-1.42857 l -81.42857,10.35714 z"
             id="path4489"
             sodipodi:nodetypes="czzzzzzzz"
             inkscape:connector-curvature="0" />
          <path
             style="fill:#ffffff;fill-opacity:1;fill-rule:evenodd;stroke:#000000;stroke-width:3.24571443;stroke-linecap:butt;stroke-linejoin:miter;stroke-miterlimit:4;stroke-dasharray:none;stroke-opacity:1"
             d="m 164.40232,522.96822 c -0.86207,-0.44841 -2.86684,-0.71846 -2.90418,0.25254 l -0.12627,3.283 c -0.0647,1.68234 1.53589,3.26552 3.03045,4.04061 l 101.77287,52.78046 c 0.89673,0.46506 2.98002,1.00889 3.03046,0 l 0.12626,-2.52538 c 0.0762,-1.52323 -0.16218,-3.33683 -1.51522,-4.04061 L 164.40232,522.96822 Z"
             id="path4491"
             sodipodi:nodetypes="czzzzzzzz"
             inkscape:connector-curvature="0" />
          <path
             style="fill:#ffffff;fill-opacity:1;fill-rule:evenodd;stroke:#000000;stroke-width:3.24571443;stroke-linecap:butt;stroke-linejoin:miter;stroke-miterlimit:4;stroke-dasharray:none;stroke-opacity:1"
             d="m 119.28571,498.75001 c -0.9137,-0.47009 -3.21428,-1.20612 -3.21428,-0.17858 l 0,4.64286 c 0,1.54418 0.77346,3.39351 2.14285,4.10714 l 25.35715,13.21429 c 0.89891,0.46845 2.96083,1.18945 3.03571,0.17857 l 0.35714,-4.82143 c 0.13293,-1.79463 -1.43553,-3.641 -3.03571,-4.46428 l -24.64286,-12.67857 z"
             id="path5251"
             sodipodi:nodetypes="czzzzzzzz"
             inkscape:connector-curvature="0" />
          <ellipse
             style="fill:#ffffff;fill-opacity:1;fill-rule:evenodd;stroke:#000000;stroke-width:3.24571586;stroke-linecap:round;stroke-linejoin:round;stroke-miterlimit:4;stroke-dasharray:none;stroke-opacity:1"
             id="path5253"
             transform="matrix(0.996926,0.07834392,-0.07834392,0.996926,37.79303,-42.73734)"
             cx="556.42853"
             cy="510.71429"
             rx="10.714286"
             ry="3.2142856" />
        </g>
      </g>
    </g>
  </g>
</svg>
