<?xml version="1.0" encoding="UTF-8" standalone="no"?>
<!-- Created with Inkscape (http://www.inkscape.org/) -->

<svg
   xmlns:dc="http://purl.org/dc/elements/1.1/"
   xmlns:cc="http://creativecommons.org/ns#"
   xmlns:rdf="http://www.w3.org/1999/02/22-rdf-syntax-ns#"
   xmlns:svg="http://www.w3.org/2000/svg"
   xmlns="http://www.w3.org/2000/svg"
   xmlns:sodipodi="http://sodipodi.sourceforge.net/DTD/sodipodi-0.dtd"
   xmlns:inkscape="http://www.inkscape.org/namespaces/inkscape"
   width="34.862846mm"
   height="30.986185mm"
   viewBox="0 0 123.52977 109.79357"
   id="svg7021"
   version="1.1"
   inkscape:version="0.91 r13725"
   sodipodi:docname="tablet+stylus.svg">
  <defs
     id="defs7023" />
  <sodipodi:namedview
     id="base"
     pagecolor="#ffffff"
     bordercolor="#666666"
     borderopacity="1.0"
     inkscape:pageopacity="0.0"
     inkscape:pageshadow="2"
     inkscape:zoom="0.35"
     inkscape:cx="-292.52659"
     inkscape:cy="146.768"
     inkscape:document-units="px"
     inkscape:current-layer="layer1"
     showgrid="false"
     fit-margin-top="0"
     fit-margin-left="0"
     fit-margin-right="0"
     fit-margin-bottom="0"
     inkscape:window-width="1600"
     inkscape:window-height="838"
     inkscape:window-x="0"
     inkscape:window-y="27"
     inkscape:window-maximized="1" />
  <metadata
     id="metadata7026">
    <rdf:RDF>
      <cc:Work
         rdf:about="">
        <dc:format>image/svg+xml</dc:format>
        <dc:type
           rdf:resource="http://purl.org/dc/dcmitype/StillImage" />
        <dc:title></dc:title>
      </cc:Work>
    </rdf:RDF>
  </metadata>
  <g
     inkscape:label="Layer 1"
     inkscape:groupmode="layer"
     id="layer1"
     transform="translate(52.473408,-569.33663)">
    <g
       id="g5495"
       transform="translate(-527.76426,577.04808)">
      <path
         style="fill:none;stroke:#000000;stroke-width:1;stroke-linecap:round;stroke-linejoin:round;stroke-miterlimit:4;stroke-dasharray:none;stroke-opacity:1"
         d="m 476.851,14.121 c 0.23444,29.151332 0.46784,58.302673 0.703,87.454 40.01934,-0.30583 80.03866,-0.61362 120.058,-0.919 1.34002,-1.981366 0.3138,-4.641706 0.59699,-6.926322 C 597.93668,66.394112 597.66333,39.058556 597.39,11.723 c -40.18133,0.300117 -80.36267,0.600588 -120.544,0.901 0.002,0.499 0.003,0.998 0.005,1.497 z"
         id="path5497"
         inkscape:connector-curvature="0" />
      <path
         style="fill:none;stroke:#000000;stroke-width:1;stroke-linecap:round;stroke-linejoin:round;stroke-miterlimit:4;stroke-dasharray:none;stroke-opacity:1"
         d="m 598.268,99.63 c -40.23867,0.308419 -80.47734,0.61612 -120.716,0.925"
         id="path5499"
         inkscape:connector-curvature="0" />
      <path
         style="fill:none;stroke:#000000;stroke-width:1;stroke-linecap:round;stroke-linejoin:round;stroke-miterlimit:4;stroke-dasharray:none;stroke-opacity:1"
         d="M 477.554,101.575 C 477.33051,71.924609 477.07917,42.274343 476.846,12.624"
         id="path5501"
         inkscape:connector-curvature="0" />
      <path
         style="fill:none;stroke:#000000;stroke-width:1;stroke-linecap:round;stroke-linejoin:round;stroke-miterlimit:4;stroke-dasharray:none;stroke-opacity:1"
         d="m 586.251,89.535 c -32.24932,0.247461 -64.49866,0.492916 -96.748,0.739 -0.19465,-23.492659 -0.38629,-46.985342 -0.581,-70.478 32.21266,-0.241889 64.42533,-0.483015 96.638,-0.724 0.23041,23.487666 0.4599,46.975341 0.691,70.463 z"
         id="path5503"
         inkscape:connector-curvature="0" />
      <g
         id="g5519"
         transform="matrix(0.50889461,0.86082883,-0.86082883,0.50889461,162.71277,-409.13401)">
        <path
           inkscape:connector-curvature="0"
           id="path5517"
           d="m 580.82908,-66.709262 c -1.24315,0.0082 -2.48629,0.01635 -3.72944,0.0245 -0.10288,-0.851688 -0.0805,-1.55783 -0.0224,-2.336745 1.24174,-0.008 2.48943,0.347854 3.73116,0.339863 0.0923,0.705976 0.0535,1.266404 0.0207,1.972382 z"
           style="fill:none;stroke:#000000;stroke-width:0.99999988;stroke-linecap:round;stroke-linejoin:round;stroke-miterlimit:4;stroke-dasharray:none;stroke-opacity:1"
           sodipodi:nodetypes="ccccc" />
        <path
           sodipodi:nodetypes="ccccc"
           style="fill:#000000;stroke:#000000;stroke-width:1;stroke-linecap:round;stroke-linejoin:round;stroke-miterlimit:4;stroke-dasharray:none;stroke-opacity:1"
           d="m 577.59121,-65.654354 c -32.24932,0.01743 -37.2734,2.297167 -69.52274,2.314497 -2.66888,-1.80978 -2.08732,-3.310284 -0.581,-4.965426 32.21266,-0.01704 37.35471,-1.523271 69.56738,-1.540251 2.39536,1.500151 1.38773,2.691023 0.53636,4.19118 z"
           id="path5515"
           inkscape:connector-curvature="0" />
      </g>
    </g>
  </g>
</svg>
