<?xml version="1.0" encoding="UTF-8" standalone="no"?>
<!-- Created with Inkscape (http://www.inkscape.org/) -->

<svg
   xmlns:dc="http://purl.org/dc/elements/1.1/"
   xmlns:cc="http://creativecommons.org/ns#"
   xmlns:rdf="http://www.w3.org/1999/02/22-rdf-syntax-ns#"
   xmlns:svg="http://www.w3.org/2000/svg"
   xmlns="http://www.w3.org/2000/svg"
   xmlns:sodipodi="http://sodipodi.sourceforge.net/DTD/sodipodi-0.dtd"
   xmlns:inkscape="http://www.inkscape.org/namespaces/inkscape"
   width="34.862846mm"
   height="30.986185mm"
   viewBox="0 0 123.52977 109.79357"
   id="svg7021"
   version="1.1"
   inkscape:version="0.91 r13725"
   sodipodi:docname="tablet+stylus.svg">
  <defs
     id="defs7023" />
  <sodipodi:namedview
     id="base"
     pagecolor="#ffffff"
     bordercolor="#666666"
     borderopacity="1.0"
     inkscape:pageopacity="0.0"
     inkscape:pageshadow="2"
     inkscape:zoom="2.8"
     inkscape:cx="45.998303"
     inkscape:cy="34.388899"
     inkscape:document-units="px"
     inkscape:current-layer="g5495"
     showgrid="false"
     fit-margin-top="0"
     fit-margin-left="0"
     fit-margin-right="0"
     fit-margin-bottom="0"
     inkscape:window-width="1600"
     inkscape:window-height="838"
     inkscape:window-x="0"
     inkscape:window-y="27"
     inkscape:window-maximized="1" />
  <metadata
     id="metadata7026">
    <rdf:RDF>
      <cc:Work
         rdf:about="">
        <dc:format>image/svg+xml</dc:format>
        <dc:type
           rdf:resource="http://purl.org/dc/dcmitype/StillImage" />
        <dc:title></dc:title>
      </cc:Work>
    </rdf:RDF>
  </metadata>
  <g
     inkscape:label="Layer 1"
     inkscape:groupmode="layer"
     id="layer1"
     transform="translate(52.473408,-569.33663)">
    <g
       id="g5495"
       transform="translate(-527.76426,577.04808)">
      <path
         style="fill:none;stroke:#000000;stroke-width:1;stroke-linecap:round;stroke-linejoin:round;stroke-miterlimit:4;stroke-dasharray:none;stroke-opacity:1"
         d="m 476.851,14.121 c 0.23444,29.151332 0.46784,58.302673 0.703,87.454 40.01934,-0.30583 80.03866,-0.61362 120.058,-0.919 1.34002,-1.981366 0.3138,-4.641706 0.59699,-6.926322 C 597.93668,66.394112 597.66333,39.058556 597.39,11.723 c -40.18133,0.300117 -80.36267,0.600588 -120.544,0.901 0.002,0.499 0.003,0.998 0.005,1.497 z"
         id="path5497"
         inkscape:connector-curvature="0" />
      <path
         style="fill:none;stroke:#000000;stroke-width:1;stroke-linecap:round;stroke-linejoin:round;stroke-miterlimit:4;stroke-dasharray:none;stroke-opacity:1"
         d="m 598.268,99.63 c -40.23867,0.308419 -80.47734,0.61612 -120.716,0.925"
         id="path5499"
         inkscape:connector-curvature="0" />
      <path
         style="fill:none;stroke:#000000;stroke-width:1;stroke-linecap:round;stroke-linejoin:round;stroke-miterlimit:4;stroke-dasharray:none;stroke-opacity:1"
         d="M 477.554,101.575 C 477.33051,71.924609 477.07917,42.274343 476.846,12.624"
         id="path5501"
         inkscape:connector-curvature="0" />
      <path
         style="fill:none;stroke:#000000;stroke-width:1;stroke-linecap:round;stroke-linejoin:round;stroke-miterlimit:4;stroke-dasharray:none;stroke-opacity:1"
         d="m 586.251,89.535 c -32.24932,0.247461 -64.49866,0.492916 -96.748,0.739 -0.19465,-23.492659 -0.38629,-46.985342 -0.581,-70.478 32.21266,-0.241889 64.42533,-0.483015 96.638,-0.724 0.23041,23.487666 0.4599,46.975341 0.691,70.463 z"
         id="path5503"
         inkscape:connector-curvature="0" />
      <g
         id="g5519"
         transform="matrix(0.50889461,0.86082883,-0.86082883,0.50889461,196.10563,-409.13401)">
        <path
           inkscape:connector-curvature="0"
           id="path5517"
           d="m 580.82908,-66.709262 c -1.24315,0.0082 -2.48629,0.01635 -3.72944,0.0245 -0.10288,-0.851688 -0.0805,-1.55783 -0.0224,-2.336745 1.24174,-0.008 2.48943,0.347854 3.73116,0.339863 0.0923,0.705976 0.0535,1.266404 0.0207,1.972382 z"
           style="fill:none;stroke:#000000;stroke-width:0.99999988;stroke-linecap:round;stroke-linejoin:round;stroke-miterlimit:4;stroke-dasharray:none;stroke-opacity:1"
           sodipodi:nodetypes="ccccc" />
        <path
           sodipodi:nodetypes="ccccc"
           style="fill:#000000;stroke:#000000;stroke-width:1;stroke-linecap:round;stroke-linejoin:round;stroke-miterlimit:4;stroke-dasharray:none;stroke-opacity:1"
           d="m 577.59121,-65.654354 c -32.24932,0.01743 -37.2734,2.297167 -69.52274,2.314497 -2.66888,-1.80978 -2.08732,-3.310284 -0.581,-4.965426 32.21266,-0.01704 37.35471,-1.523271 69.56738,-1.540251 2.39536,1.500151 1.38773,2.691023 0.53636,4.19118 z"
           id="path5515"
           inkscape:connector-curvature="0" />
      </g>
      <g
         transform="translate(527.76426,-577.04808)"
         style="font-style:normal;font-weight:normal;font-size:47.87904358px;line-height:125%;font-family:Sans;letter-spacing:0px;word-spacing:0px;fill:#000000;fill-opacity:1;stroke:none;stroke-width:1px;stroke-linecap:butt;stroke-linejoin:miter;stroke-opacity:1"
         id="text3341">
        <path
           inkscape:connector-curvature="0"
           d="m 0.45673727,642.23568 q 0,0.0479 -0.0957581,0.2394 -0.38303235,1.00546 -1.14909705,2.39395 -0.71818562,1.34061 -1.67576652,2.58547 -0.9575809,1.24485 -2.1066779,2.10668 -1.149097,0.86182 -2.3939522,0.86182 -1.149097,0 -1.8194036,-0.57455 -0.6703066,-0.62243 -1.00546,-1.48425 -0.3351529,-0.9097 -0.4309109,-1.96304 -0.09576,-1.05334 -0.09576,-1.91516 l 0,-5.07518 q 0,-1.1491 -0.718185,-2.15456 -0.670307,-1.05334 -2.058799,-1.05334 -0.766065,0 -1.532129,0.86183 -0.766065,0.86182 -1.436372,2.01091 -0.622427,1.1491 -1.196976,2.2982 -0.574548,1.1491 -1.00546,1.72364 0.09576,1.58001 0.191516,3.16002 0.143638,1.58001 0.143638,3.2079 0,0.43091 -0.287275,0.71818 -0.287274,0.28728 -0.718185,0.28728 -0.718186,0 -0.861823,-0.57455 -0.143637,-0.57455 -0.143637,-1.10122 0,-1.1491 -0.04788,-2.29819 -0.09576,-1.19698 -0.191517,-2.34608 -0.191516,-3.11213 -0.191516,-6.65518 -0.04788,-3.54305 -0.04788,-7.37338 0,-4.16547 0.191516,-8.28307 0.191517,-4.1176 1.196977,-8.13944 0.239395,-0.86182 0.622427,-2.0588 0.383032,-1.19697 0.957581,-2.25031 0.622428,-1.05334 1.388492,-1.77153 0.766065,-0.76606 1.771525,-0.76606 1.675766,0 2.872742,1.19697 1.196977,1.1491 1.9151622,2.87275 0.7660647,1.67576 1.101218,3.59093 0.3830324,1.91516 0.3830324,3.49517 0,2.01092 -0.3830324,4.02184 -0.3830323,1.96304 -1.0533389,3.8782 -0.6224273,1.91516 -1.4842503,3.78244 -0.813944,1.81941 -2.393952,4.59639 l 0.239395,0 q 1.101218,-0.0479 1.963041,0.38303 0.909702,0.38304 1.5321291,1.10122 0.6224276,0.71819 0.9097019,1.67577 0.3351533,0.95758 0.3351533,1.96304 l 0,5.07518 q 0,0.38303 0,1.05334 0,0.6703 0.095758,1.34061 0.1436372,0.67031 0.4309114,1.1491 0.2872743,0.47879 0.8618228,0.47879 1.0054599,0 1.8194037,-0.76607 0.8139437,-0.81394 1.4842503,-1.86728 0.7181857,-1.10122 1.2448552,-2.20244 0.5745485,-1.14909 1.0054599,-1.86728 0.2872742,-0.52667 0.8139437,-0.52667 0.38303234,0 0.71818565,0.28728 0.3351533,0.28727 0.3351533,0.6703 z M -10.076652,618.00889 q 0,-1.05334 -0.143637,-2.15456 -0.143638,-1.1491 -0.478791,-2.25032 -0.335153,-1.14909 -0.861823,-2.10667 -0.526669,-0.95759 -1.292734,-1.58001 -0.335153,-0.28728 -0.718185,-0.47879 -0.335154,-0.19152 -0.718186,-0.19152 -0.52667,0 -1.00546,0.62243 -0.430911,0.62243 -0.766065,1.48425 -0.335153,0.81394 -0.622427,1.72364 -0.239396,0.86183 -0.335154,1.34062 -1.00546,3.83032 -1.149097,7.85216 -0.143637,3.97396 -0.143637,8.04368 0,4.54851 0.143637,9.09702 0.766065,-2.0588 2.393953,-4.78791 1.627887,-2.7291 2.824863,-5.41033 1.196976,-2.7291 2.01092,-5.50609 0.861823,-2.77698 0.861823,-5.6976 z"
           style="font-style:normal;font-variant:normal;font-weight:normal;font-stretch:normal;font-family:'Cursive standard';-inkscape-font-specification:'Cursive standard'"
           id="path3346" />
        <path
           inkscape:connector-curvature="0"
           d="m 17.773241,642.4272 q 0,0.0958 -0.09576,0.28727 -1.53213,3.59093 -4.452751,5.69761 -2.872743,2.0588 -6.8467036,2.0588 -1.6278875,0 -3.0642588,-0.62243 -1.4363713,-0.67031 -2.48971026,-1.77152 -1.05333896,-1.10122 -1.67576652,-2.53759 -0.62242762,-1.43638 -0.62242762,-3.06426 0,-1.72365 0.62242762,-3.16002 0.57454852,-1.48425 1.62788748,-2.53759 1.101218,-1.10122 2.5375893,-1.72364 1.4842504,-0.62243 3.2078959,-0.62243 0.9575809,0 2.0587989,0.33515 1.101218,0.28728 2.0587986,0.9097 0.957581,0.57455 1.580009,1.43637 0.622427,0.86183 0.622427,1.96304 0,1.34062 -0.622427,2.34608 -0.574549,1.00546 -1.53213,1.67576 -0.9575806,0.67031 -2.1545566,1.05334 -1.1969761,0.33516 -2.3939522,0.33516 -1.5800085,0 -2.9206217,-0.33516 -1.2927342,-0.33515 -2.72910546,-1.00546 0.14363713,1.10122 0.62242756,2.10668 0.5266695,1.00546 1.2927342,1.77153 0.8139437,0.71818 1.8194036,1.14909 1.00546,0.43091 2.154557,0.43091 2.5854683,0 4.7400256,-1.10121 2.202436,-1.10122 3.590928,-3.35154 0.143637,-0.23939 0.335153,-0.6703 0.239396,-0.43091 0.478791,-0.86183 0.287274,-0.43091 0.574548,-0.76606 0.287275,-0.33515 0.622428,-0.33515 0.383032,0 0.718185,0.28727 0.335154,0.2394 0.335154,0.62243 z m -6.894583,-3.35154 q 0,-0.6703 -0.47879,-1.14909 -0.4787904,-0.52667 -1.149097,-0.86182 -0.6703066,-0.38304 -1.4363713,-0.57455 -0.7660647,-0.19152 -1.2927342,-0.19152 -2.202436,0 -3.8303235,1.34061 -1.6278874,1.29274 -2.10667788,3.44729 1.43637128,0.76607 2.68122648,1.1491 1.2448551,0.33516 2.8727426,0.33516 0.7660647,0 1.5800084,-0.19152 0.8618228,-0.2394 1.5321294,-0.67031 0.7181857,-0.43091 1.149097,-1.05334 0.47879,-0.6703 0.47879,-1.58001 z"
           style="font-style:normal;font-variant:normal;font-weight:normal;font-stretch:normal;font-family:'Cursive standard';-inkscape-font-specification:'Cursive standard'"
           id="path3348" />
        <path
           d="m 22.674854,633.5217 c -0.766065,1.69173 -1.468291,3.17598 -2.106678,4.45275 -0.414951,0.8299 -0.829903,1.64384 -1.244855,2.44183 -6.390264,10.55398 -5.501872,5.18145 -3.590926,1.77152 0,0 3.029287,-4.71186 5.049592,-8.8156 0,0 1.829732,-2.12334 1.892867,0.1495 z"
           style="font-style:normal;font-variant:normal;font-weight:normal;font-stretch:normal;font-family:'Cursive standard';-inkscape-font-specification:'Cursive standard'"
           id="path3350"
           inkscape:connector-curvature="0"
           sodipodi:nodetypes="cscccc" />
      </g>
    </g>
  </g>
</svg>
